<!-- Generated by IcoMoon.io -->
<svg version="1.1" xmlns="http://www.w3.org/2000/svg" width="1024" height="1024" viewBox="0 0 1024 1024">
<g id="icomoon-ignore">
</g>
<path fill="#000" d="M798.72 716.8c22.622 0 40.96 18.338 40.96 40.96s-18.338 40.96-40.96 40.96h-655.36c-22.622 0-40.96-18.338-40.96-40.96s18.338-40.96 40.96-40.96h655.36zM593.92 471.040c22.622 0 40.96 18.338 40.96 40.96s-18.338 40.96-40.96 40.96h-450.56c-22.622 0-40.96-18.338-40.96-40.96s18.338-40.96 40.96-40.96h450.56zM880.64 225.28c22.622 0 40.96 18.338 40.96 40.96s-18.338 40.96-40.96 40.96h-737.28c-22.622 0-40.96-18.338-40.96-40.96s18.338-40.96 40.96-40.96h737.28z"></path>
</svg>
